<?xml version="1.0" standalone="no"?>
<!DOCTYPE svg PUBLIC "-//W3C//DTD SVG 20010904//EN"
 "http://www.w3.org/TR/2001/REC-SVG-20010904/DTD/svg10.dtd">
<svg version="1.0" xmlns="http://www.w3.org/2000/svg"
 width="192.000000pt" height="192.000000pt" viewBox="0 0 192.000000 192.000000"
 preserveAspectRatio="xMidYMid meet">
<metadata>
Created by potrace 1.14, written by Peter Selinger 2001-2017
</metadata>
<g transform="translate(0.000000,192.000000) scale(0.100000,-0.100000)"
fill="#000000" stroke="none">
<path d="M1264 1584 c-73 -38 -254 -146 -263 -158 -8 -9 -11 -70 -9 -182 l3
-169 130 -78 c72 -42 140 -80 153 -83 22 -6 116 42 260 133 l52 33 0 167 c0
93 -4 173 -8 179 -7 10 -97 64 -212 127 -30 16 -60 34 -66 38 -5 5 -23 1 -40
-7z"/>
<path d="M560 1561 c-25 -15 -87 -52 -137 -82 l-93 -54 0 -171 c0 -150 2 -173
18 -186 27 -23 266 -158 280 -158 13 0 33 10 182 95 131 75 120 53 120 244 0
91 -4 171 -8 176 -14 20 -274 165 -295 165 -12 0 -42 -13 -67 -29z"/>
<path d="M230 979 c-36 -21 -72 -42 -81 -46 -8 -4 -45 -26 -82 -48 l-67 -39 0
-172 c0 -150 2 -173 18 -186 9 -8 74 -48 144 -88 93 -52 134 -71 150 -66 13 3
81 40 153 83 l130 78 3 175 2 176 -136 79 c-76 44 -144 83 -153 86 -9 3 -44
-11 -81 -32z"/>
<path d="M798 927 l-138 -81 0 -171 c0 -151 2 -174 18 -187 9 -8 74 -48 144
-88 93 -52 134 -71 150 -66 13 3 82 40 153 83 l130 78 2 170 c2 94 0 175 -5
180 -14 21 -274 165 -295 164 -12 0 -84 -37 -159 -82z"/>
<path d="M1586 1002 c-2 -4 -25 -19 -51 -32 -26 -14 -54 -29 -63 -35 -10 -5
-44 -25 -77 -44 -33 -19 -63 -39 -67 -45 -4 -6 -8 -86 -8 -177 0 -192 -12
-170 130 -249 52 -29 107 -62 122 -72 38 -26 54 -23 143 28 44 26 96 55 115
66 19 11 47 29 63 40 l27 19 0 169 0 169 -33 25 c-17 13 -43 30 -57 35 -14 6
-63 34 -109 61 -78 47 -123 61 -135 42z"/>
</g>
</svg>
