<svg xmlns="http://www.w3.org/2000/svg" fill="none" viewBox="0 0 196 132">
  <path fill="#9ECD7C"
    d="m101 17.34 28-16.18a4 4 0 0 1 4 0l28 16.18a4 4 0 0 1 2 3.47v32.88a4 4 0 0 1-2 3.47l-28 16.18a4 4 0 0 1-4 0l-28-16.18a4 4 0 0 1-2-3.47V20.81a4 4 0 0 1 2-3.47Z" />
  <path fill="#363B3E"
    d="M35 17.34 63 1.16a4 4 0 0 1 4 0l28 16.18a4 4 0 0 1 2 3.47v32.88a4 4 0 0 1-2 3.47L67 73.34a4 4 0 0 1-4 0L35 57.16a4 4 0 0 1-2-3.47V20.81a4 4 0 0 1 2-3.47Z" />
  <path fill="#C6A719"
    d="m68 75.34 28-16.18a4 4 0 0 1 4 0l28 16.18a4 4 0 0 1 2 3.47v32.88a4 4 0 0 1-2 3.47l-28 16.18a4 4 0 0 1-4 0l-28-16.19a4 4 0 0 1-2-3.46V78.81a4 4 0 0 1 2-3.47Z" />
  <path fill="#445932"
    d="m134 75.34 28-16.18a4 4 0 0 1 4 0l28 16.18a4 4 0 0 1 2 3.47v32.88a4 4 0 0 1-2 3.47l-28 16.18a4 4 0 0 1-4 0l-28-16.19a4 4 0 0 1-2-3.46V78.81a4 4 0 0 1 2-3.47Z" />
  <path fill="#A33F0D"
    d="m2 75.34 28-16.18a4 4 0 0 1 4 0l28 16.18a4 4 0 0 1 2 3.47v32.88a4 4 0 0 1-2 3.47l-28 16.18a4 4 0 0 1-4 0L2 115.15a4 4 0 0 1-2-3.46V78.81a4 4 0 0 1 2-3.47Z" />
  <path fill="#516240"
    d="M129.9 22.6c-.55-1.08-.38-2.67.35-3.49.66-.76.86-.47.29.38-.58.85-.61 2.56 0 3.4.23.36.28.65.14.65-.17 0-.52-.4-.78-.93ZM116.07 27.07c-1.1 0-2.77-1.7-2.77-2.82 0-.97.29-.73.72.56.2.67.64 1.11 1.59 1.58 1.19.62 1.22.68.46.68ZM146.39 23.84c-.9.35-1.85 1.73-1.85 2.61.03.7.05.7.46-.26.52-1.24 1.44-2.03 2.37-2.06.35 0 .64-.15.64-.3 0-.34-.78-.34-1.62 0ZM133.83 32.5c0 .23.23.44.52.44.3 0 .67.14.87.35.26.26.44.26.7 0 .2-.2.57-.35.86-.35.3 0 .52-.2.52-.44 0-.35-.37-.44-1.73-.44-1.36 0-1.74.09-1.74.44ZM144.54 36.23c0-.33.17-.68.37-.74 1.01-.44 2.66.09 2.08.65-.17.14-.78.38-1.36.47-.98.17-1.1.14-1.1-.38Z" />
  <path fill="#516240" fill-rule="evenodd"
    d="M119.52 29.53c1.47-1.52 2.05-1.9 3.61-2.4 4.72-1.53 11.14-.27 18.92 3.66 6.22 3.15 6.53 3.47 6.53 6.55 0 3.79-1.07 5.64-3.99 6.96a31.97 31.97 0 0 1-7.98 2.14c-1.85.24-2.46.47-3.24 1.17-1.04.91-1.94 1.15-4.45 1.18-.76 0-1.86.04-2.63.07l-.32.02c-1.19.03-1.5-.1-2.35-.91-.78-.77-1.18-.94-2.2-.94-1.64 0-2.28-.41-2.95-1.88a3.28 3.28 0 0 0-1.27-1.59c-1.16-.55-1.88-2.02-1.88-3.9 0-1.2-.14-1.76-.5-2.05-.92-.8-2.1-3.03-2.1-4 0-1.26.9-1.85 3.24-2.08 1.76-.15 1.85-.2 3.56-2Zm5.2 1.32c1.25-.35 3.33-2.23 3.33-3.02 0-.59-1.54-.62-3.73 0-1.82.5-3.01 1.17-4.2 2.44l-.87.9h2.17c1.19 0 2.66-.14 3.3-.32ZM145.84 34A66.85 66.85 0 0 0 135.25 29a34.91 34.91 0 0 0-4.48-1.23c-1.42-.17-1.48-.15-1.83.7a7 7 0 0 1-3.26 3.15c-.73.29-2.72.53-5.79.7-4.63.27-6.3.59-6.3 1.2 0 .8 1.27 2.73 2.31 3.5 2.26 1.67 5.55 1.88 8.33.56.72-.36 2-1.35 2.83-2.2.87-.86 1.68-1.56 1.86-1.56 1.3 0-1.62 3.29-4.08 4.58-1.36.73-1.88.82-4.17.85a19.9 19.9 0 0 1-3.58-.27l-.99-.26.15 1.38c.17 1.53.72 2.29 1.96 2.82.58.23.87.61 1.02 1.35.26 1.4 1.18 1.97 2.86 1.73 1.22-.2 1.33-.15 1.65.53.46 1.03 1.45 1.5 2.78 1.26.6-.12 2.02-.18 3.12-.18 1.36.03 2.2-.11 2.6-.4.55-.39.52-.45-.58-.62-3.06-.53-4.6-1.44-5.4-3.26-1.4-3.26-.18-6.25 2.97-7.2 1.22-.37 2-.2 2 .48 0 .3-.29.44-.98.44a4.39 4.39 0 0 0-3.27 2.05c-.93 1.85.03 4.58 2 5.64 1.1.61 1.61.67 4.85.67 4.05-.03 7.35-.7 10.3-2.11l1.7-.8-1.87-.17c-1.42-.12-1.88-.26-1.88-.59 0-.35.52-.47 2.51-.52l.41-.02c1.08-.03 1.65-.04 1.97-.33.35-.32.42-.95.58-2.27l.05-.47c.26-2.17-.17-3.2-1.76-4.14Z"
    clip-rule="evenodd" />
  <path fill="#516240"
    d="M105.2 36.6c.8.98 2.77 1.1 4.2.24.89-.53.34-.73-.62-.23-1.04.53-1.79.55-2.72 0-.95-.56-1.33-.56-.86 0ZM152.49 36.87c-1.42.62-1.6.59-.75-.12.92-.79 2.92-.79 3.82.03.3.27.48.42.46.46-.03.07-.5-.1-1.68-.54-.58-.21-1.07-.15-1.85.17Z" />
  <path fill="#5C4C0E"
    d="M98.28 78.44c-.33 0-.41-.97-.09-1.26.33-.33.38-.24.38.52 0 .41-.11.74-.3.74ZM98.28 81.22c-.47 0-.74-.82-.47-1.5.09-.23.38-.4.62-.4.35 0 .44.23.38.93-.06.62-.24.97-.53.97ZM94.15 81.8c0 .42.15.74.3.74.17 0 .29-.33.29-.74 0-.4-.12-.73-.3-.73-.14 0-.3.32-.3.73ZM102.09 82.36c-.15-.09-.27-.4-.27-.73 0-.62.44-.76.65-.2.2.52-.06 1.14-.38.93ZM96.21 82.68c0 .44.12.7.3.59.18-.09.3-.35.3-.59 0-.23-.12-.5-.3-.58-.18-.12-.3.14-.3.58ZM100.34 83.42c-.14 0-.29-.33-.29-.74 0-.4.15-.73.3-.73.17 0 .29.32.29.73s-.12.74-.3.74ZM97.8 82.65c-.26.68 0 1.5.48 1.5.3 0 .47-.35.53-.97.06-.7-.03-.94-.38-.94-.24 0-.53.18-.62.41ZM93.85 84.35c0-.47.1-.93.2-1.05.42-.38.84.03.84.88 0 .55-.18.88-.5.94-.42.08-.54-.1-.54-.77ZM101.76 83.62c-.18.82.06 1.55.53 1.55.27 0 .41-.32.41-1.02 0-1.09-.7-1.47-.94-.53ZM96.18 86.2c-.3-.2-.35-1.7-.06-2 .1-.11.36-.05.57.12.56.47.11 2.23-.5 1.88ZM99.93 84.2c-.09.12-.18.53-.18.97 0 .94.21 1.2.77.97.24-.09.42-.53.42-.97 0-.76-.63-1.34-1-.96Z" />
  <path fill="#5C4C0E" fill-rule="evenodd"
    d="M97.69 90.27c0-2.6.09-4.8.2-4.9.1-.1.36-.2.6-.2.3 0 .38 1 .38 4.87 0 4.24.06 4.83.44 4.5.33-.26.44-1.2.5-3.89.1-2.96.18-3.57.53-3.57.36 0 .48.58.6 2.93.11 2.52.2 2.84.5 2.28.2-.35.35-.88.32-1.17-.12-1.32.09-2.14.5-2.14h.02c.06 0 .1 0 .15.02.3.11.3 1 .3 7.9v2.26c.02 3.9.02 5-.48 5.76-.2.3-.48.55-.87.9l-.6.53-1.91 1.79v2.6c0 2.32-.06 2.59-.5 2.5-.45-.09-.53-.5-.62-2.58l-.1-2.49-1.9-1.9-1.9-1.94.06-7.59c.09-6.53.15-7.61.53-7.61.33 0 .48.44.6 1.73.08 1.02.29 1.78.52 1.87.27.09.36-.58.36-2.7 0-2.63.26-3.57.77-2.75.14.2.26 1.88.3 3.72.02 1.94.2 3.46.37 3.64.24.23.33-.97.33-4.37Zm-1.33 6.33c1.27 1.23 1.33 1.26 1.33.56 0-.47-.44-1.18-1.33-2.03-1.27-1.23-1.33-1.26-1.33-.55 0 .47.45 1.17 1.33 2.02Zm3.93-.09c.76-.76 1.41-1.64 1.41-1.96 0-.32-.03-.59-.03-.59l-1.41 1.4c-.77.77-1.4 1.65-1.4 1.97 0 .44.3.26 1.43-.82Zm-3.93 3.02c1.27 1.23 1.33 1.26 1.33.55 0-.46-.44-1.17-1.33-2.02-1.27-1.23-1.33-1.26-1.33-.55 0 .47.45 1.17 1.33 2.02Zm3.72.14a8.06 8.06 0 0 0 1.48-1.87c.14-.38.23-.73.17-.8-.26-.26-2.86 2.65-2.86 3.2 0 .53.15.47 1.2-.53Zm-3.72 2.79c1.27 1.23 1.33 1.26 1.33.55 0-.47-.44-1.17-1.33-2.02-1.27-1.23-1.33-1.26-1.33-.55 0 .47.45 1.17 1.33 2.02Zm2.5.67c0 .56.19.47 1.37-.7.82-.85 1.33-1.56 1.24-1.88-.06-.44-.33-.32-1.33.7-.74.7-1.27 1.5-1.27 1.88Zm-2.5 2.26c1.27 1.23 1.33 1.26 1.33.55 0-.47-.44-1.17-1.33-2.02-1.27-1.23-1.33-1.26-1.33-.56 0 .47.45 1.18 1.33 2.03Zm3.8.03c.72-.7 1.4-1.53 1.45-1.82.27-1-.23-.82-1.5.47-.71.73-1.24 1.58-1.24 1.96 0 .59.12.53 1.3-.61Z"
    clip-rule="evenodd" />
  <path fill="#5C4C0E"
    d="M93.97 86.46c-.26.68 0 1.5.47 1.5.3 0 .45-.3.45-.85 0-.94-.62-1.38-.92-.65ZM102.3 88.1c-.42 0-.77-1.05-.54-1.7.27-.82.94-.32.94.68 0 .67-.14 1.02-.4 1.02ZM90.9 89.83c0 1.47-.12 2.67-.23 2.67-.12 0-.74-.53-1.4-1.17-.61-.65-1.2-1.09-1.29-1.03-.06.09.44.76 1.15 1.46l1.3 1.32h-2.72c-1.62 0-2.71.12-2.71.3 0 .17 1.27.29 3.25.29h3.24v-3.05c0-1.73-.12-3.16-.3-3.25-.17-.12-.29.8-.29 2.46ZM105.54 93.67c0-.09 0-1.55.06-3.31.12-3.75.65-3.99.65-.26v2.51l1.32-1.28c1.6-1.56 1.8-.94.24.64l-1.1 1.11h2.58c1.41 0 2.56.12 2.56.27 0 .29-6.22.58-6.31.32ZM85 96.3c0 .18 1.1.3 2.71.3h2.72l-1.3 1.32c-1.68 1.7-1.27 2.1.44.44l1.33-1.3v2.7c0 1.61.12 2.7.3 2.7.17 0 .3-1.26.3-3.23v-3.22h-3.25c-1.98 0-3.25.12-3.25.3ZM105.98 102.28c-.27.18-.62-5.89-.35-6.15.3-.26 6.22-.12 6.22.18 0 .17-1.09.29-2.71.29h-2.72l1.3 1.32c1.6 1.6 1.33 2.16-.3.58-.73-.7-1.17-1-1.2-.73 0 .23 0 1.32.03 2.4.03 1.06-.1 2.02-.27 2.11Z" />
  <path fill="#AEB5AD" fill-rule="evenodd"
    d="M64.67 24.12c.18 0 .3-1.22.3-3.06s-.12-3.06-.3-3.06c-.17 0-.3 1.22-.3 3.06s.13 3.06.3 3.06Zm-1.17 0c.18 0 .3-.58.3-1.3 0-1.35-.07-1.47-.39-1.12-.32.3-.23 2.42.09 2.42Zm2.34 0c.18 0 .3-.58.3-1.3 0-.74-.12-1.32-.3-1.32-.14 0-.29.58-.29 1.31 0 .73.15 1.31.3 1.31Zm-14.38 6.1c.06-.18-.79-1.23-1.9-2.33-1.11-1.11-2.2-2.02-2.43-2.02-.26 0 .59 1.05 1.87 2.34 1.3 1.28 2.4 2.18 2.46 2Zm23.08 2.39c-.7-.73-1.64-1.84-2.05-2.48-.56-.84-1.46-1.52-3.63-2.68l-2.9-1.52-2.99 1.58C60.98 28.59 60 29.29 60 29.6c0 .35-1.12 1.05-3.64 2.3l-3.6 1.78-.47 2.56a9.47 9.47 0 0 0-.03 4.87c.41 2.1.59 2.51 1.88 3.97 1.4 1.6 1.52 1.66 3.51 2.01 1.15.2 3.52.82 5.3 1.4l3.28 1.05 2.67-1.1c3.3-1.38 6.18-3.65 7.7-6.07l1.06-1.72-.36-1.78v-.05c-.46-2.14-.47-2.17-1.37-2.17-.8 0-.82-.03-.38-1.57.29-1.11.29-1.17-1-2.48Zm3.34-1.95c.09.08 1.11-.82 2.31-2.02 1.2-1.2 2.11-2.24 2.02-2.3-.08-.09-1.1.82-2.31 2.01-1.2 1.2-2.1 2.25-2.02 2.3Zm-25.54-1.14c.06-.09-.23-.56-.7-1.02-.47-.5-.97-.88-1.14-.88-.15 0 .14.47.7 1.02.53.56 1.05.94 1.14.88Zm24.72.35c.23.2 1.96-1.31 1.96-1.72 0-.47-.5-.24-1.32.64-.46.47-.73.96-.64 1.08Zm-28.2-.61c0 .38 1.7 2 1.9 1.83.06-.08-.32-.6-.88-1.13-.55-.56-1.02-.85-1.02-.7Zm29.78 2.24c.2.23 1.85-1.2 1.85-1.6 0-.44-.47-.24-1.26.58-.44.47-.7.93-.59 1.02Zm-30.8 10.12c.72 0 1.31-.15 1.31-.3 0-.17-.59-.28-1.32-.28-.73 0-1.32.11-1.32.29 0 .14.59.3 1.32.3Zm33.96.3c.74 0 1.32-.15 1.32-.3 0-.17-.58-.3-1.32-.3-.73 0-1.31.13-1.31.3 0 .15.58.3 1.31.3Zm-35.72.87c1.84 0 3.07-.12 3.07-.3 0-.17-1.23-.29-3.07-.29-1.85 0-3.08.12-3.08.3 0 .17 1.23.29 3.08.29Zm37.48.29c1.85 0 3.08-.12 3.08-.3 0-.17-1.23-.28-3.08-.28-1.84 0-3.07.11-3.07.29 0 .17 1.23.29 3.07.29Zm-36.37.5c.44.05 1.08.05 1.46 0 .35-.06 0-.12-.82-.12-.79 0-1.11.06-.64.11Zm34.44.67c.64 0 1.26-.15 1.35-.3.11-.17-.36-.29-1.15-.29-.73 0-1.34.12-1.34.3 0 .14.52.29 1.14.29ZM62.7 28.9c.06-.06.82-.5 1.67-.97l1.58-.87 1.64.9c2.1 1.2 2.23 1.32 1.46 1.55-.61.2-6.58-.38-6.35-.61Zm1.32 4.4a2.5 2.5 0 0 1-2.87-2.4c0-.8.09-.95.52-.84.27.06 1.3.2 2.26.32.97.1 2.1.24 2.58.32l.79.18-.5.87c-.56.94-1.11 1.23-2.78 1.55Zm5.91-2.92c-.61.2-1.37.82-1.93 1.6-.79 1.12-.88 1.38-.64 2.1.17.44.4.91.55 1 .15.09 1.26-.53 2.46-1.37l2.17-1.52-.5-.84c-.73-1.26-.96-1.37-2.1-.97Zm-15.08 3.44 2.34-1.2c1.3-.63 2.43-1.19 2.58-1.22.56-.02.09.88-1.02 1.93l-1.26 1.2-2.64-.7Zm4.77.2c-.46.45-.82.88-.82.97 0 .18 5.19 3.12 5.51 3.12.15 0 .47-.23.76-.55.47-.5.38-.62-1.9-2.48a23.03 23.03 0 0 0-2.55-1.9c-.12.03-.56.41-1 .85Zm10.52 4.1c.09-.24.82-1.47 1.67-2.7a14.96 14.96 0 0 1 1.67-2.27c.08 0 .4.27.67.56.5.55.5.7-.26 3.3-.44 1.48-.85 2.8-.91 2.88-.06.12-.76-.15-1.55-.55-.97-.53-1.38-.9-1.3-1.23Zm-5.54-3.86c-.4.18-.29.38.68 1.2 1.34 1.1 1.87.9 1.29-.5-.41-.93-.91-1.1-1.97-.7ZM54.7 36.6c-1.53 1-1.59.94-1.26-.81.2-.88.23-.9 1.26-.73.58.12 1.14.3 1.25.38.12.12-.43.64-1.25 1.16Zm15.05-1.2c-.76.5-.88.97-.27.97.21 0 .62-.32.88-.73.56-.81.33-.9-.61-.23Zm-13.85 1.9.93-.72.94-.76 1.32.78c.52.28 1.21.7 1.83 1.06l.77.46 1.26.79-2.31.61a24 24 0 0 1-2.75.64c-.24 0-.8-.64-1.23-1.43l-.76-1.43Zm10.3.9c-.7.74-1.23 1.53-1.23 1.9 0 .62.12.67 1.53.59l1.55-.09.56-1.55c.46-1.34.5-1.6.14-1.83-.76-.47-1.32-.27-2.55.99Zm8.47 3.54c-.65-.82-.65-1.55 0-3.27.4-1.1 1.26-.79 1.64.58.3 1.11.26 1.38-.32 2.37l-.68 1.1-.64-.78Zm-21.1-2.95-.16.1-.38.25c-.12.09.55 3.06.73 3.06.06 0 .7-.35 1.43-.75l1.3-.76-.74-1.2c-.85-1.46-.97-1.51-1.9-.87l-.27.17Zm16.24 2.25c-.65-.24-.7-.38-.44-.88.12-.22.2-.36.31-.41.18-.07.45.08 1.15.47 1.61.93.88 1.55-1.02.82Zm-9.08-.47c-1.3.35-2.32.73-2.29.85.38 1.22.53 1.25 3.14.4 2.02-.67 2.52-.93 2.52-1.4 0-.7-.41-.67-3.37.15Zm11.33 3.38c-.09-1.25.03-1.66.44-1.98.47-.32.62-.26 1.17.44.38.44.68.9.68.99 0 .12-.5.64-1.09 1.17l-1.11.96-.09-1.58ZM55.4 42.67l-1.23.76.76.96.79 1 1.11-.88c1.44-1.14 1.47-1.23.94-1.96-.56-.81-.85-.78-2.37.12Zm4.36.85 2.43-.8c1.3-.4 2.99-.75 3.75-.78l1.44-.03-.85 1.52c-.82 1.43-1.03 1.6-2.76 2.19-2.69.9-2.84.87-3.51-.67a7 7 0 0 1-.5-1.43Zm8.79-1.23c-.41.5-1.58 2.86-1.47 2.95.15.11 3.17.75 3.49.75.32 0 .35-3.4.06-3.58-.7-.38-1.82-.44-2.08-.12Zm-11.51 3.62.79-.82c.88-.9.97-.87 1.52.38.38.9.27.96-1.37.64l-.94-.2Zm7.5.73c-.47.14-1.09.35-1.32.43-.5.15 1.81 1.2 2.72 1.23.3.03 1.2-.26 2.02-.61l1.52-.65-1.46-.37c-1.67-.44-2.28-.44-3.48-.03Z"
    clip-rule="evenodd" />
  <path fill="#E88817" fill-rule="evenodd"
    d="M31.81 78.5c0 1.87.03 2.64.09 1.7.06-.92.06-2.46 0-3.4-.06-.92-.09-.16-.09 1.7Zm-14.56 7.93c.12-.12-.76-1.12-1.92-2.28a14.8 14.8 0 0 0-2.42-2.1c-.18 0 .7 1.04 1.92 2.28 1.26 1.24 2.34 2.19 2.42 2.1Zm29.18.32c.09.1 1.17-.88 2.42-2.12 1.23-1.25 2.1-2.28 1.93-2.28-.41 0-4.56 4.2-4.35 4.4Zm-6.24 7.42L40 85.45l-8.05-.08c-7.18-.06-8.08-.03-8.26.4-.23.6-.23 7.34 0 7.93.15.42 1.17.47 8.32.47h8.16Zm-8.76 9.76-.17-8.72-7.9-.09c-4.36-.03-7.97.03-8.09.15-.12.09-.2 2.1-.2 4.43v4.23h16.36Zm17.42-4.26c.06-3.1-.03-4.17-.3-4.37-.2-.12-3.78-.24-7.96-.24-4.17 0-7.76.12-7.96.24-.26.2-.35 1.27-.3 4.37l.1 4.11h16.33l.09-4.1ZM6.4 98.82c.9.06 2.42.06 3.36 0 .9-.06.14-.1-1.7-.1-1.83 0-2.6.04-1.66.1Zm47.56.3c.9.05 2.42.05 3.35 0 .9-.07.15-.1-1.7-.1-1.83 0-2.59.03-1.65.1Zm-29.27-5.83v-6.8h14.53l-.09 3.16-.08 2.4-.03 1c-.03.15-3.24.24-7.18.24H24.7Zm2.92-1.48a.3.3 0 0 0 .3-.3c0-.17-.12-.3-.3-.3a.3.3 0 0 0-.3.3c0 .15.15.3.3.3Zm8.46 0a.3.3 0 0 0 .3-.3c0-.17-.12-.3-.3-.3a.3.3 0 0 0-.3.3c0 .15.16.3.3.3Zm-20.13 11.23h14.59v-6.8H15.94v6.8Zm11.67-1.77c0 .15-.15.3-.32.3-.15 0-.2-.15-.12-.3.09-.18.24-.3.32-.3.06 0 .12.12.12.3Zm5.84 1.77v-6.8h14.3v6.8h-14.3Zm2.91-1.48a.3.3 0 0 0 .3-.3c0-.17-.12-.29-.3-.29a.3.3 0 0 0-.29.3c0 .15.15.3.3.3Zm8.46 0a.3.3 0 0 0 .3-.3c0-.17-.12-.29-.3-.29a.3.3 0 0 0-.29.3c0 .15.15.3.3.3Z"
    clip-rule="evenodd" />
  <path fill="#C5BA6B" fill-rule="evenodd"
    d="M170.83 78.33a7.78 7.78 0 0 0-2.43-1.2 21.16 21.16 0 0 0-8.13-.55c-2.25.35-4.62 1.49-5.06 2.45-.26.55-.35 5.13-.35 16.46v15.68l.73.9c1.26 1.46 3.16 1.93 7.9 1.93 3.69 0 4.24-.09 5.65-.7l.04-.02c.75-.33 1.27-.56 1.61-.94.75-.8.75-2.28.75-6.92v-6.49l2.19-4.72c2.57-5.56 2.7-5.94 2.08-7.14-.7-1.34-1.79-1.22-3.16.32l-1.09 1.26-.03-4.84c0-4.7-.02-4.84-.7-5.48Zm8.2 10.7a19.22 19.22 0 0 0-1.9-3.15c-1.2-1.58-2.96-3.18-2.96-2.71 0 .14.67.96 1.49 1.83.79.88 1.93 2.57 2.52 3.7.58 1.17 1.17 2.13 1.31 2.13.35 0 .32-.09-.47-1.8Zm-28.1-2.86c.71-.96 1.3-1.8 1.3-1.9 0-.38-.5-.03-1.2.82-1.18 1.4-2.14 3.12-1.88 3.35.12.12.3.03.35-.17.1-.18.74-1.14 1.44-2.1Zm.74 17.25a14.37 14.37 0 0 1-.18-14.54c1.11-2.01.91-2.5-.29-.73-1.81 2.74-2.63 7.46-1.9 10.93.4 2.04 2.22 5.74 2.8 5.74.3 0 .18-.38-.43-1.4Zm26.45-3.7c.52-2.01.58-5.04.12-7.14-.18-.79-.44-1.46-.62-1.46s-.23.32-.12.79c.41 1.69.53 5.57.2 7.05a15.56 15.56 0 0 1-2.65 5.71c-1.03 1.26-.94 1.75.11.76 1-.93 2.43-3.7 2.96-5.71Zm-31.04-2.24c.32 3.2.67 2.65.64-1.11-.03-1.93-.12-3.5-.23-3.5-.39 0-.62 2.65-.41 4.6Zm32.3 4.13c.35 0 .84-1.89 1.1-4.16.3-2.54-.28-2.01-.7.58-.17 1.25-.4 2.56-.52 2.91-.12.38-.06.67.12.67Zm-28.12 4.6c-.56-.7-1.38-1.94-1.81-2.79-.68-1.28-1.32-1.95-1.32-1.34 0 .44 1.87 3.59 2.75 4.63 1.34 1.58 1.7 1.11.38-.5Zm24.1 1.93c1.12-1.05 2.9-3.44 2.9-3.87 0-.56-.46-.35-.79.35-.17.38-1 1.42-1.84 2.33-1.6 1.77-1.81 2.68-.26 1.2Zm-19.16-28.7c.3-.5 2-1.26 3.63-1.64 2.34-.55 6.58-.26 8.7.56 1.43.58 1.69.78 1.69 1.4 0 .58-.3.87-1.47 1.45-1.34.67-1.78.73-5.4.73-3.52 0-4.13-.08-5.48-.67-1.46-.67-2.02-1.28-1.67-1.83Zm5.65-.59c.97-.17 1.7-.43 1.61-.58-.15-.26-.32-.26-1.58-.06-2.02.32-3.8 1.23-3.8 1.87 0 .32 1.4 1.02 2.57 1.28 1.5.32 1.14-.38-.38-.76a4.32 4.32 0 0 1-1.46-.55c-.2-.32 1.02-.79 3.04-1.2Zm4.33.12c1.05.17 1.52.09 1.2-.23-.32-.32-2.28-.53-2.28-.24 0 .18.5.38 1.08.47Zm-3.6 1.25c.82.2 1.93-.08 1.93-.5 0-.34-2.25-.34-2.48.04-.1.14.14.35.55.46Zm1.52 1.29c1.4 0 3.54-.56 3.95-1.05.59-.7.15-.94-.64-.35a5.4 5.4 0 0 1-2.55.72c-1.93.18-2.51.68-.76.68Zm-8.07 14.97v14.72l.67.47c2.6 1.83 10.62 1.9 12.93.09l.74-.56V98.8l1.87-4.02c1.81-3.91 1.84-4.03 1.31-4.55-.32-.32-.55-.7-.55-.9 0-.2-.44.05-.97.58-1.46 1.43-1.66.96-1.66-3.88v-4.14l-1.67.62c-2.52.9-8.63.87-10.92-.06-.87-.35-1.63-.64-1.66-.64-.06 0-.1 6.61-.1 14.68Zm2.05-5.33.14 7.75.82 1.14c.18.27.32.48.43.7.36.74.36 1.66.36 5.62 0 4.29-.06 5.16-.4 5.16-.36 0-.45-.9-.53-5.07-.1-4.8-.12-5.13-.77-5.8a4.75 4.75 0 0 1-.93-1.69c-.18-.55-.3-4.31-.3-8.36 0-6.88.04-7.38.53-7.29.44.09.5.76.65 7.84Zm1.75-.17c0 5.88-.06 6.85-.44 6.85s-.44-.97-.44-6.85c0-5.89.06-6.85.44-6.85s.44.96.44 6.85Zm9.9-2.04c.1 2.1-.13 3.06-.68 3.06-.35 0-.44-.5-.44-2.51 0-2.21.06-2.48.53-2.39.38.09.52.44.58 1.84Zm-7.85 7.46.15 5.36.87 1.14c.85 1.13.88 1.22.97 4.95.06 3.73-.12 4.84-.79 4.43-.2-.14-.32-1.52-.32-3.93v-3.7l-.94-1.29-.96-1.28-.1-5.22c-.08-5.39-.02-6.17.62-5.97.27.12.38 1.57.5 5.5Zm1.9 1.86c0 2.83-.06 3.2-.5 3.3-.46.08-.52-.2-.52-3.3 0-3.09.06-3.38.52-3.3.44.1.5.48.5 3.3Zm1.9 6.38c0 4.75-.11 7.2-.32 7.32-.17.12-.35.15-.4.12-.13-.12-.24-8.05-.18-12.01.03-2.04.11-2.54.47-2.54.38 0 .43 1 .43 7.11Zm4.1 1.2c0 4.4-.12 5.1-.76 5.1-.32 0-.41-.87-.41-4.75 0-2.62.09-4.87.2-4.95.1-.12.35-.06.59.11.3.26.38 1.37.38 4.49Zm-11.85-2.04c0 1.43-.09 1.75-.5 1.84-.47.08-.52-.15-.52-1.84 0-1.69.06-1.92.52-1.84.41.1.5.41.5 1.84Zm9.74 3.47c.06 4 .03 4.28-.44 4.2-.46-.1-.52-.53-.61-4.03-.09-4.1 0-4.78.61-4.6.27.11.38 1.31.44 4.43Zm-5.85.81c-.09 3.21-.17 3.88-.53 3.88-.35 0-.46-.61-.52-3.47-.09-3.79 0-4.25.67-4.25.38 0 .44.52.38 3.84Zm-3.89.56c0 1.45-.09 1.86-.44 1.86-.32 0-.47-.4-.53-1.57-.11-1.78.1-2.45.62-2.27.23.05.35.72.35 1.98Zm16.85-19.47c-.5.5-1.02-.2-.79-1.1.12-.44.35-.74.56-.65.47.15.64 1.34.23 1.75Z"
    clip-rule="evenodd" />
</svg>
